<svg width="48" height="48" viewBox="0 0 48 48" fill="none" xmlns="http://www.w3.org/2000/svg">
<rect width="48" height="48" rx="4" fill="white"/>
<path d="M22.0076 14.1033C20.6059 13.6496 19.0823 14.2807 18.412 15.5926L17.6063 17.1697C17.5105 17.3571 17.3581 17.5096 17.1707 17.6053L15.5935 18.4111C14.2816 19.0813 13.6505 20.605 14.1043 22.0065L14.6497 23.6915C14.7145 23.8917 14.7145 24.1073 14.6497 24.3075L14.1043 25.9925C13.6505 27.3941 14.2817 28.9177 15.5935 29.5879L17.1707 30.3937C17.3581 30.4895 17.5105 30.6419 17.6063 30.8293L18.4121 32.4064C19.0823 33.7183 20.6059 34.3494 22.0076 33.8957L23.6926 33.3503C23.8928 33.2855 24.1083 33.2855 24.3085 33.3503L25.9935 33.8957C27.3951 34.3494 28.9187 33.7183 29.589 32.4064L30.3948 30.8293C30.4905 30.6419 30.6429 30.4895 30.8303 30.3937L32.4075 29.5879C33.7194 28.9177 34.3505 27.3941 33.8968 25.9925L33.3513 24.3075C33.2865 24.1073 33.2865 23.8917 33.3513 23.6915L33.8968 22.0065C34.3505 20.6049 33.7194 19.0813 32.4075 18.4111L30.8303 17.6053C30.6429 17.5096 30.4905 17.3571 30.3948 17.1697L29.589 15.5926C28.9187 14.2807 27.3951 13.6496 25.9935 14.1033L24.3085 14.6487C24.1083 14.7135 23.8928 14.7135 23.6926 14.6487L22.0076 14.1033ZM20.1931 16.5025C20.4165 16.0652 20.9244 15.8548 21.3916 16.0061L23.0766 16.5515C23.6772 16.746 24.3239 16.746 24.9245 16.5515L26.6095 16.0061C27.0767 15.8548 27.5845 16.0652 27.808 16.5025L28.6137 18.0797C28.901 18.6419 29.3582 19.0991 29.9204 19.3863L31.4976 20.1921C31.9349 20.4155 32.1452 20.9234 31.994 21.3906L31.4485 23.0756C31.2541 23.6762 31.2541 24.3228 31.4485 24.9234L31.994 26.6084C32.1452 27.0756 31.9349 27.5835 31.4976 27.8069L29.9204 28.6127C29.3582 28.8999 28.901 29.3572 28.6137 29.9193L27.808 31.4965C27.5845 31.9338 27.0767 32.1442 26.6095 31.9929L24.9245 31.4475C24.3239 31.2531 23.6772 31.2531 23.0766 31.4475L21.3916 31.9929C20.9244 32.1442 20.4165 31.9338 20.1931 31.4965L19.3873 29.9193C19.1001 29.3572 18.6428 28.8999 18.0806 28.6127L16.5035 27.8069C16.0662 27.5835 15.8558 27.0756 16.007 26.6084L16.5525 24.9234C16.7469 24.3228 16.7469 23.6762 16.5525 23.0756L16.007 21.3906C15.8558 20.9234 16.0662 20.4155 16.5035 20.1921L18.0806 19.3863C18.6428 19.0991 19.1001 18.6419 19.3873 18.0797L20.1931 16.5025ZM18.7601 23.7569L23.0027 27.9995L30.0738 20.9285L28.6596 19.5143L23.0027 25.1711L20.1743 22.3426L18.7601 23.7569Z" fill="#999999"/>
</svg>
