<svg width="467" height="420" viewBox="0 0 467 420" fill="none" xmlns="http://www.w3.org/2000/svg">
<path d="M267.218 415.723L236.648 484.786L357.765 549.499C357.765 549.499 369.61 438.646 267.218 415.723Z" fill="#C3E0FF"/>
<path d="M254.004 303.007L257.044 420.493C257.437 420.446 327.176 459.127 326.687 455.795C326.365 453.596 330.701 357.815 333.678 293.108C334.075 284.511 332.955 275.912 330.371 267.705L282.236 275.868L254.004 303.007Z" fill="#005ABA"/>
<path d="M144.172 321.416L292.668 483.471L344.695 442.391L261.979 307.278C261.979 307.278 235.115 268.248 199.305 286.374C163.496 304.5 144.172 321.416 144.172 321.416Z" fill="#005ABA"/>
<mask id="mask0_359_5826" style="mask-type:luminance" maskUnits="userSpaceOnUse" x="-44" y="208" width="377" height="150">
<path d="M332.165 208.859H-43.9141V357.911H332.165V208.859Z" fill="white"/>
</mask>
<g mask="url(#mask0_359_5826)">
<path d="M273.506 217.751C168.785 199.731 66.8426 234.549 -32.9741 308.997C-32.9741 308.997 -40.0071 355.867 15.0156 368.753C70.0382 381.64 253.575 286.375 253.575 286.375L254.005 303.011L330.372 267.712C322.394 242.344 300.965 222.477 273.506 217.751Z" fill="#005ABA"/>
</g>
<path d="M165.506 328.82C165.293 328.822 165.085 328.749 164.918 328.616C164.751 328.482 164.634 328.295 164.588 328.085C164.542 327.876 164.569 327.657 164.665 327.466C164.76 327.274 164.918 327.121 165.113 327.032L272.839 277.211C272.951 277.159 273.072 277.129 273.195 277.124C273.318 277.119 273.441 277.138 273.557 277.18C273.673 277.222 273.779 277.287 273.87 277.37C273.96 277.454 274.034 277.554 274.086 277.666C274.138 277.778 274.168 277.899 274.173 278.022C274.178 278.146 274.159 278.269 274.117 278.385C274.075 278.501 274.01 278.607 273.927 278.698C273.844 278.789 273.743 278.863 273.632 278.915L165.9 328.733C165.777 328.792 165.642 328.821 165.506 328.82Z" fill="#363E44"/>
<path d="M325.479 411.927C325.319 411.926 325.163 411.885 325.024 411.806C324.886 411.728 324.769 411.616 324.686 411.48L258.112 302.445C258.016 302.236 257.999 302 258.065 301.78C258.131 301.56 258.276 301.372 258.471 301.251C258.666 301.131 258.898 301.086 259.124 301.125C259.35 301.165 259.554 301.286 259.696 301.466L326.271 410.501C326.335 410.606 326.378 410.723 326.397 410.844C326.416 410.966 326.411 411.09 326.382 411.21C326.353 411.33 326.301 411.442 326.228 411.542C326.156 411.641 326.064 411.725 325.959 411.789C325.815 411.88 325.648 411.927 325.479 411.927Z" fill="#363E44"/>
<path d="M103.672 16.6971C103.672 16.6971 90.2901 18.6102 80.5263 9.20863C70.7625 -0.19296 45.6413 -5.89001 25.1656 9.80135C-15.5587 41.0121 -13.8579 -13.6563 -50 5.62316V19.1183C-46.123 17.6761 -39.9906 17.7317 -32.3634 25.7335C-21.0995 37.5669 -13.9186 35.6246 -11.9009 34.6932C-11.5232 34.4974 -11.3146 34.3757 -11.3146 34.3757C-11.5012 34.4971 -11.6973 34.6033 -11.9009 34.6932C-14.5974 36.093 -26.0936 41.2344 -34.9701 32.5896C-40.6482 27.0566 -46.0279 26.9216 -50 28.115V83.1803C-50 83.1803 -42.1853 104.243 -17.4893 95.3206C7.20676 86.3979 13.5478 57.3068 39.0282 68.4786C64.5086 79.6504 59.0787 81.9737 82.9032 70.5399C106.728 59.1061 103.672 16.6971 103.672 16.6971Z" fill="#363E44"/>
<path d="M105.927 89.3072C96.19 91.3182 81.5219 67.7494 81.5219 67.7494L80.5605 37.3325C83.3647 31.3322 88.4 26.6689 94.5904 24.3392C100.781 22.0094 107.635 22.1981 113.689 24.8648C119.742 27.5316 124.514 32.4649 126.985 38.6104C129.456 44.7558 129.43 51.626 126.913 57.7525C126.913 57.7525 115.834 87.2618 105.927 89.3072Z" fill="#9E6C5A"/>
<path d="M54.8926 95.7892L82.3326 131.44L84.5537 104.59L108.756 49.4481L80.6661 37.0723L54.8926 95.7892Z" fill="#9E6C5A"/>
<path d="M121.57 62.6953C121.57 62.6953 125.075 72.3853 123.947 74.0338C122.59 76.0025 114.77 74.1238 114.77 74.1238C114.77 74.1238 121.734 62.78 121.57 62.6953Z" fill="#9E6C5A"/>
<path d="M101.084 52.4809C101.084 52.4809 105.883 52.0998 110.563 54.1612C111.558 54.6004 106.176 61.7528 105.431 60.8849C102.148 57.0692 101.084 52.4809 101.084 52.4809Z" fill="white"/>
<mask id="mask1_359_5826" style="mask-type:luminance" maskUnits="userSpaceOnUse" x="101" y="52" width="20" height="15">
<path d="M101.084 52.479C101.084 52.479 108.143 51.918 113.497 55.8342C118.85 59.7505 120.44 66.6621 120.44 66.6621C120.44 66.6621 113.37 67.2231 108.04 63.3068C102.711 59.3906 101.084 52.479 101.084 52.479Z" fill="white"/>
</mask>
<g mask="url(#mask1_359_5826)">
<path d="M110.85 54.0468C112.445 53.4241 114.189 53.2893 115.86 53.6594C117.532 54.0296 119.056 54.8881 120.241 56.1263C121.425 57.3646 122.217 58.927 122.515 60.6159C122.813 62.3049 122.604 64.0445 121.916 65.6147C121.227 67.185 120.089 68.5153 118.646 69.4375C117.202 70.3597 115.519 70.8323 113.807 70.7956C112.096 70.7589 110.434 70.2145 109.031 69.2312C107.628 68.2479 106.548 66.8699 105.927 65.2716C105.095 63.129 105.146 60.7429 106.069 58.638C106.992 56.5331 108.712 54.8816 110.85 54.0468Z" fill="#363E44"/>
</g>
<path d="M108.701 76.8563C107.91 76.856 107.132 76.6461 106.448 76.248C105.764 75.8498 105.197 75.2775 104.804 74.5891C104.412 73.9006 104.208 73.1204 104.213 72.3276C104.218 71.5348 104.433 70.7574 104.834 70.0743C104.967 69.8726 105.171 69.7296 105.406 69.6749C105.64 69.6202 105.887 69.658 106.094 69.7804C106.302 69.9029 106.454 70.1007 106.52 70.3327C106.586 70.5648 106.56 70.8134 106.448 71.0269C106.192 71.455 106.063 71.9476 106.077 72.4465C106.091 72.9455 106.248 73.43 106.528 73.8427C106.808 74.2554 107.201 74.5791 107.659 74.7755C108.117 74.9719 108.621 75.0328 109.113 74.9511C109.234 74.9318 109.358 74.9367 109.478 74.9654C109.597 74.9941 109.71 75.0461 109.809 75.1185C109.909 75.1909 109.993 75.2821 110.057 75.3871C110.122 75.4921 110.165 75.6087 110.184 75.7304C110.203 75.852 110.198 75.9762 110.169 76.096C110.141 76.2157 110.089 76.3286 110.017 76.4282C109.944 76.5279 109.853 76.6123 109.749 76.6767C109.644 76.741 109.527 76.7841 109.406 76.8034C109.173 76.8394 108.937 76.8571 108.701 76.8563Z" fill="#363E44"/>
<path d="M98.23 88.4059C98.0419 88.408 97.8577 88.3526 97.7018 88.2471C89.2665 82.5818 80.8866 69.2111 80.5353 68.6448C80.465 68.5406 80.4164 68.4232 80.3923 68.2997C80.3683 68.1762 80.3693 68.0491 80.3953 67.926C80.4214 67.8029 80.4719 67.6863 80.5439 67.5833C80.6159 67.4802 80.7079 67.3927 80.8144 67.326C80.9209 67.2593 81.0397 67.2148 81.1638 67.1951C81.2878 67.1754 81.4145 67.181 81.5364 67.2115C81.6582 67.242 81.7727 67.2967 81.8729 67.3725C81.9732 67.4483 82.0572 67.5435 82.1199 67.6525C82.2044 67.7875 90.6398 81.2482 98.7424 86.6886C98.9088 86.8014 99.0346 86.9648 99.1013 87.1546C99.168 87.3445 99.172 87.5508 99.1129 87.7432C99.0537 87.9355 98.9344 88.1038 98.7726 88.2231C98.6108 88.3424 98.4151 88.4065 98.2142 88.4059H98.23Z" fill="#363E44"/>
<path d="M69.6317 48.2568C66.3621 40.9192 75.706 26.4582 86.1565 21.002C99.6256 13.9634 109.941 12.1614 121.607 18.9089C139.222 29.099 135.604 53.6019 135.604 53.6019C135.604 53.6019 117.365 45.9282 111.151 43.5256C102.401 40.1359 97.724 68.8117 87.7041 52.4588C86.6001 50.6594 72.7454 85.8578 57.5755 76.5647C36.7855 63.837 73.0993 56.0416 69.6317 48.2568Z" fill="#363E44"/>
<path d="M95.9108 58.5941C99.2948 55.2036 99.2948 49.7066 95.9108 46.3161C92.5269 42.9256 87.0404 42.9256 83.6565 46.3161C80.2725 49.7066 80.2725 55.2036 83.6565 58.5941C87.0404 61.9845 92.5269 61.9845 95.9108 58.5941Z" fill="#9E6C5A"/>
<path d="M-9.92276 98.9373C-12.7996 98.921 -15.6364 98.261 -18.2261 97.0057C-22.964 94.7353 -26.4924 90.8059 -27.9053 86.2202C-27.9614 85.9886 -27.9272 85.7443 -27.8097 85.5371C-27.6923 85.3299 -27.5004 85.1753 -27.2732 85.1048C-27.046 85.0343 -26.8006 85.0532 -26.5868 85.1577C-26.3731 85.2622 -26.2071 85.4443 -26.1227 85.6671C-24.8629 89.7527 -21.6937 93.2694 -17.4232 95.3148C-13.1527 97.3602 -8.4438 97.6249 -4.46645 96.0398C1.13776 93.8039 5.07022 88.6969 8.87326 83.7593C9.28878 83.2301 9.70166 82.6964 10.1119 82.1584C14.2028 76.9112 19.8651 70.8146 27.4078 70.2298C31.3957 69.9255 35.1882 71.2406 38.8539 72.5187C41.8435 73.5612 44.9282 74.6355 48.0314 74.7652C52.1567 74.9372 56.3321 73.1326 59.5171 69.8223C62.7022 66.512 64.3396 62.2545 64.0068 58.1398C64 57.8988 64.086 57.6643 64.2469 57.4851C64.4078 57.3058 64.6314 57.1954 64.8713 57.1767C65.1112 57.158 65.3491 57.2324 65.5358 57.3846C65.7225 57.5368 65.8436 57.7551 65.874 57.9942C66.2359 62.6434 64.4083 67.4276 60.8561 71.1242C57.304 74.8208 52.5977 76.8292 47.9469 76.6413C44.5717 76.5011 41.3444 75.3765 38.2306 74.2916C34.5861 73.0214 31.1528 71.8201 27.5425 72.0979C20.7287 72.6272 15.4335 78.3692 11.5803 83.3121C11.1683 83.8413 10.7589 84.3705 10.3469 84.8998C6.38544 90.0358 2.29716 95.3492 -3.77978 97.7757C-5.73579 98.5483 -7.82024 98.9425 -9.92276 98.9373Z" fill="#363E44"/>
<path d="M3.94793 16.1798C-3.77701 16.1798 -11.5416 11.602 -14.8164 4.53692C-14.9111 4.31289 -14.9153 4.06079 -14.8282 3.83369C-14.7412 3.60659 -14.5695 3.42219 -14.3495 3.31933C-14.1294 3.21646 -13.8781 3.20315 -13.6485 3.28219C-13.4188 3.36123 -13.2287 3.52646 -13.1182 3.74309C-9.4895 11.5782 0.208276 16.0369 8.49838 13.6871C11.7547 12.7663 14.6281 11.0066 17.6706 9.14378C19.0333 8.30761 20.441 7.44498 21.8751 6.67497C36.3742 -1.12044 55.6112 0.448699 68.6604 10.4959C68.8573 10.6475 68.9859 10.8712 69.0181 11.1179C69.0503 11.3645 68.9834 11.6138 68.8321 11.811C68.6808 12.0082 68.4575 12.1372 68.2114 12.1694C67.9652 12.2017 67.7163 12.1346 67.5195 11.983C55.0381 2.37241 36.6198 0.869429 22.7598 8.32878C21.3733 9.07233 19.9867 9.91644 18.6451 10.742C15.6291 12.5943 12.5127 14.4995 9.0081 15.4918C7.36099 15.9532 5.6582 16.1847 3.94793 16.1798Z" fill="#363E44"/>
<path d="M294.796 215.175H205.794C202.895 215.175 200.115 214.021 198.065 211.967C196.015 209.913 194.863 207.127 194.863 204.223H294.783L294.796 215.175Z" fill="#363E44"/>
<path d="M295.46 214.865L322.414 129.891C322.849 128.52 323.01 127.076 322.889 125.643C322.767 124.209 322.365 122.814 321.705 121.536C321.045 120.258 320.14 119.123 319.042 118.196C317.945 117.268 316.675 116.567 315.307 116.131L285.041 211.547L295.46 214.865Z" fill="#363E44"/>
<path d="M285.349 200.583C285.253 200.584 285.157 200.568 285.066 200.538C284.949 200.501 284.84 200.441 284.746 200.362C284.652 200.283 284.574 200.185 284.517 200.076C284.461 199.967 284.426 199.847 284.416 199.724C284.405 199.602 284.419 199.478 284.456 199.36L310.945 115.85C311.028 115.622 311.196 115.435 311.413 115.329C311.63 115.222 311.88 115.203 312.11 115.277C312.341 115.35 312.534 115.51 312.649 115.723C312.765 115.935 312.794 116.185 312.731 116.418L286.241 199.929C286.181 200.119 286.062 200.284 285.901 200.402C285.741 200.519 285.548 200.583 285.349 200.583Z" fill="white"/>
<path d="M-45.7012 316.64L117.484 243.873L92.8564 134.015L98.0961 109.708L33.756 85.4375L22.9992 108.242C22.9992 108.242 -30.2038 157.718 -45.7012 316.64Z" fill="white"/>
<path d="M242.623 182.474C236.731 180.246 213.733 167.058 203.375 173.787C192.946 180.566 188.85 193.662 189.135 206.069C189.169 206.104 189.209 206.146 189.246 206.18C190.762 209.266 193.506 213.65 198.4 216.574C203.975 219.908 207.001 218.162 213.435 220.758C224.297 225.156 226.267 234.782 230.023 233.017C232.601 231.805 231.695 226.137 229.521 221.194C227.292 216.114 223.711 213.764 224.258 213.044C224.868 212.251 228.203 215.111 232.677 218.284C234.756 219.758 237.959 227.31 241.731 226.172C244.733 225.261 243.371 216.58 238.358 210.764C234.811 206.651 229.59 205.847 229.933 204.918C230.197 204.222 233.29 204.775 235.817 206.048C239.99 208.144 243.352 215.839 246.799 214.719C250.176 213.624 248.851 206.061 244.58 200.431C240.98 195.668 235.117 195.059 235.537 193.903C235.831 193.088 238.514 192.82 244.047 193.948C248.663 194.89 257.035 199.69 258.744 195.006C260.183 191.087 251.513 185.84 242.623 182.474Z" fill="#9E6C5A"/>
<path d="M91.0667 190.261C78.0043 195.024 69.3154 207.725 70.2028 221.567C70.7891 230.638 75.5086 239.875 89.844 245.117C124.747 257.848 200.433 206.161 200.433 206.161L209.238 171.974C169.436 171.156 127.024 177.168 91.0667 190.261Z" fill="#9E6C5A"/>
<path d="M32.7717 128.799L68.1928 145.105L52.2227 199.773C52.2227 199.773 106.266 180.443 147.655 171.894L153.682 247.12L11.7678 279.683C-17.6715 287.383 -45.402 262.427 -40.6271 232.471C-36.0898 204.081 -23.0485 162.537 8.75706 132.692C11.9227 129.729 15.8967 127.777 20.1731 127.083C24.4495 126.39 28.8351 126.988 32.7717 128.799Z" fill="white"/>
<path d="M0.866146 282.038C-11.7446 282.038 -23.7955 276.5 -32.2098 266.408C-32.3554 266.215 -32.4215 265.974 -32.3944 265.734C-32.3674 265.494 -32.2492 265.274 -32.0643 265.119C-31.8795 264.964 -31.6423 264.887 -31.4019 264.902C-31.1614 264.918 -30.9363 265.026 -30.7731 265.204C-20.3728 277.68 -4.16232 282.885 11.5305 278.775L44.5034 271.21C44.7451 271.154 44.999 271.197 45.2092 271.329C45.4194 271.461 45.5688 271.671 45.6245 271.913C45.6802 272.155 45.6376 272.409 45.5061 272.62C45.3746 272.83 45.165 272.98 44.9234 273.036L11.9768 280.596C8.34989 281.55 4.61596 282.034 0.866146 282.038Z" fill="#363E44"/>
<path d="M52.2335 200.712C51.9929 200.708 51.7626 200.614 51.5891 200.447C51.4622 200.329 51.3703 200.179 51.3237 200.012C51.2771 199.845 51.2775 199.669 51.325 199.502L58.8492 173.737C58.8813 173.616 58.9374 173.502 59.014 173.403C59.0906 173.304 59.1863 173.221 59.2954 173.16C59.4044 173.098 59.5247 173.059 59.6491 173.045C59.7734 173.031 59.8994 173.042 60.0195 173.077C60.1396 173.112 60.2514 173.172 60.3483 173.251C60.4453 173.33 60.5254 173.428 60.5839 173.539C60.6425 173.65 60.6783 173.771 60.6893 173.896C60.7002 174.021 60.6861 174.147 60.6477 174.266L53.6358 198.28C59.4249 196.248 79.0529 189.463 101.639 182.787C101.872 182.733 102.117 182.77 102.323 182.891C102.53 183.012 102.683 183.207 102.75 183.437C102.818 183.667 102.795 183.914 102.686 184.128C102.578 184.341 102.392 184.505 102.167 184.586C75.3739 192.503 52.7617 200.574 52.5372 200.656C52.4398 200.691 52.3371 200.71 52.2335 200.712Z" fill="#363E44"/>
<path d="M62.3517 166.073C62.2035 166.073 62.0574 166.038 61.9254 165.97C61.7934 165.902 61.6793 165.804 61.5925 165.684C61.5056 165.564 61.4485 165.425 61.4257 165.278C61.403 165.131 61.4153 164.981 61.4617 164.84C68.5924 143.121 42.0424 133.19 40.9067 132.777C40.6816 132.686 40.5005 132.511 40.4016 132.289C40.3027 132.066 40.2937 131.815 40.3765 131.586C40.4594 131.357 40.6275 131.169 40.8456 131.062C41.0637 130.955 41.3147 130.937 41.5458 131.012C41.839 131.121 70.9534 141.975 63.2417 165.427C63.18 165.615 63.0608 165.779 62.901 165.895C62.7412 166.01 62.549 166.073 62.3517 166.073Z" fill="#363E44"/>
<rect width="109.928" height="194.323" transform="matrix(-1 0 0 1 94.459 356.791)" fill="#03448A"/>
</svg>
