<svg width="695" height="792" viewBox="0 0 695 792" fill="none" xmlns="http://www.w3.org/2000/svg">
<path d="M153.566 652.857L139.641 721.853L229.388 742.232L251.978 653.786L153.566 652.857Z" fill="#E2A18D"/>
<path d="M240.628 790H44.8383V785.374C44.8383 774.992 46.8863 764.712 50.8655 755.121C54.8447 745.529 60.6771 736.814 68.0297 729.473C75.3823 722.132 84.1111 716.309 93.7177 712.336C103.324 708.363 113.621 706.318 124.019 706.318H240.628V790Z" fill="#C3E0FF"/>
<path d="M135.842 724.893C135.361 724.894 134.898 724.709 134.55 724.377L117.274 708.238C117.077 708.073 116.915 707.869 116.799 707.639C116.684 707.41 116.616 707.159 116.6 706.903C116.585 706.646 116.621 706.389 116.709 706.148C116.796 705.906 116.931 705.684 117.107 705.497C117.283 705.309 117.495 705.159 117.731 705.056C117.967 704.952 118.221 704.898 118.478 704.897C118.736 704.895 118.991 704.945 119.228 705.045C119.465 705.145 119.679 705.292 119.858 705.478L137.134 721.608C137.411 721.869 137.604 722.207 137.687 722.578C137.77 722.95 137.74 723.338 137.6 723.691C137.46 724.045 137.216 724.349 136.901 724.563C136.587 724.778 136.214 724.892 135.833 724.893H135.842Z" fill="#363E44"/>
<path d="M116.205 730.401C115.721 730.4 115.257 730.216 114.904 729.885L97.6283 713.754C97.4186 713.593 97.245 713.389 97.1186 713.157C96.9922 712.925 96.9157 712.669 96.8941 712.405C96.8724 712.142 96.9061 711.876 96.993 711.627C97.0798 711.377 97.2178 711.148 97.3984 710.955C97.5789 710.761 97.7979 710.607 98.0413 710.503C98.2847 710.399 98.5472 710.347 98.812 710.35C99.0768 710.353 99.3381 710.411 99.5792 710.52C99.8202 710.63 100.036 710.788 100.212 710.986L117.488 727.117C117.766 727.377 117.959 727.715 118.042 728.087C118.125 728.458 118.094 728.846 117.954 729.2C117.814 729.554 117.571 729.857 117.256 730.071C116.941 730.286 116.569 730.401 116.188 730.401H116.205Z" fill="#363E44"/>
<path d="M356.021 594.022L428.476 629.242L450.187 533.651L361.464 511.131L356.021 594.022Z" fill="#E2A18D"/>
<path d="M498.125 705.324L497.462 524.289H413.519L414.173 628.848C414.18 638.9 416.17 648.851 420.029 658.134C423.888 667.417 429.541 675.851 436.666 682.953C443.79 690.054 452.245 695.685 461.549 699.524C470.853 703.362 480.823 705.333 490.89 705.324H498.125Z" fill="#C3E0FF"/>
<path d="M414.706 638.364C414.33 638.362 413.965 638.248 413.654 638.039C413.343 637.829 413.101 637.533 412.958 637.186C412.816 636.84 412.779 636.46 412.852 636.092C412.926 635.725 413.106 635.388 413.371 635.122L429.553 618.991C429.725 618.798 429.935 618.642 430.17 618.532C430.405 618.422 430.66 618.362 430.92 618.354C431.179 618.347 431.437 618.392 431.678 618.488C431.919 618.583 432.138 618.727 432.321 618.91C432.505 619.093 432.649 619.312 432.745 619.552C432.84 619.793 432.886 620.051 432.878 620.31C432.87 620.569 432.81 620.823 432.7 621.058C432.59 621.292 432.434 621.502 432.24 621.674L416.049 637.805C415.873 637.982 415.664 638.123 415.433 638.219C415.203 638.315 414.955 638.364 414.706 638.364Z" fill="#363E44"/>
<path d="M420.268 656.717C419.893 656.714 419.527 656.601 419.216 656.392C418.905 656.182 418.663 655.886 418.521 655.539C418.378 655.193 418.341 654.812 418.415 654.445C418.488 654.078 418.668 653.741 418.933 653.475L435.124 637.336C435.3 637.16 435.51 637.021 435.74 636.926C435.97 636.831 436.217 636.783 436.466 636.783C436.715 636.784 436.962 636.833 437.192 636.929C437.422 637.024 437.631 637.164 437.807 637.34C437.983 637.516 438.122 637.725 438.217 637.955C438.312 638.185 438.361 638.431 438.36 638.68C438.36 638.929 438.31 639.175 438.215 639.405C438.119 639.634 437.979 639.843 437.802 640.019L421.612 656.158C421.436 656.335 421.226 656.476 420.996 656.572C420.765 656.667 420.518 656.717 420.268 656.717Z" fill="#363E44"/>
<path d="M209.269 348.415C179.988 329.326 143.42 324.692 118.841 332.001C77.7436 344.219 47.7043 395.003 113.08 446.981L376.613 625.214L426.718 482.915L209.269 348.415Z" fill="#005ABA"/>
<path d="M597.429 438.435C597.429 438.435 594.544 510.663 511.867 510.663H190.675L205.453 346.43L420.267 375.914L597.429 438.435Z" fill="#005ABA"/>
<path d="M306.39 480.829L275.627 680.859H94.6592L205.455 346.441L306.39 480.829Z" fill="#005ABA"/>
<path d="M159.842 486.057C159.638 486.055 159.435 486.023 159.239 485.963C158.761 485.804 158.366 485.462 158.14 485.012C157.914 484.562 157.875 484.041 158.034 483.564L189.709 387.964C189.788 387.728 189.912 387.51 190.075 387.322C190.238 387.134 190.437 386.98 190.66 386.868C190.882 386.757 191.125 386.691 191.373 386.673C191.622 386.655 191.871 386.686 192.108 386.765C192.344 386.843 192.563 386.967 192.751 387.13C192.939 387.293 193.094 387.491 193.205 387.714C193.317 387.936 193.383 388.178 193.401 388.426C193.419 388.674 193.388 388.923 193.309 389.159L161.642 484.716C161.522 485.1 161.283 485.437 160.96 485.678C160.637 485.919 160.246 486.052 159.842 486.057Z" fill="#E6D0BE"/>
<path d="M291.481 579.673H291.17C290.674 579.591 290.231 579.316 289.937 578.908C289.644 578.501 289.523 577.993 289.603 577.498L300.429 511.46C300.5 511.015 300.729 510.611 301.073 510.319C301.417 510.027 301.855 509.868 302.306 509.87H433.47C433.73 509.852 433.991 509.888 434.236 509.975C434.482 510.063 434.707 510.2 434.897 510.377C435.088 510.555 435.24 510.77 435.344 511.009C435.447 511.248 435.501 511.505 435.501 511.766C435.501 512.026 435.447 512.283 435.344 512.522C435.24 512.761 435.088 512.976 434.897 513.154C434.707 513.331 434.482 513.468 434.236 513.556C433.991 513.643 433.73 513.679 433.47 513.662H303.917L293.358 578.151C293.27 578.583 293.035 578.971 292.693 579.248C292.35 579.526 291.922 579.676 291.481 579.673Z" fill="#E6D0BE"/>
<path d="M430.24 326.353L508.723 318.442L510.454 295.759L433.9 278.398L430.24 326.353Z" fill="#BC8271"/>
<path d="M451.442 391.74C480.354 397.759 504.252 377.002 506.638 345.798L508.722 318.446L311.227 270.491C261.061 260.035 225.037 280.904 216.829 326.468L288.896 348.223L451.442 391.74Z" fill="#E2A18D"/>
<path d="M277.453 359.275C279.904 359.785 282.458 359.305 284.556 357.94C286.654 356.575 288.125 354.437 288.649 351.992L290.578 342.774C290.831 341.565 290.843 340.317 290.613 339.103C290.383 337.889 289.915 336.732 289.237 335.699C288.559 334.666 287.683 333.776 286.66 333.081C285.637 332.385 284.486 331.898 283.275 331.648C282.06 331.388 280.807 331.371 279.586 331.597C278.364 331.823 277.2 332.288 276.16 332.965C275.119 333.642 274.223 334.517 273.523 335.541C272.822 336.565 272.332 337.717 272.079 338.931L270.141 348.14C269.644 350.583 270.133 353.124 271.502 355.21C272.871 357.295 275.01 358.756 277.453 359.275Z" fill="#E2A18D"/>
<path d="M258.97 355.418C261.421 355.928 263.975 355.448 266.073 354.083C268.171 352.718 269.642 350.58 270.166 348.135L272.103 338.926C272.357 337.715 272.369 336.467 272.138 335.252C271.908 334.036 271.439 332.879 270.76 331.844C270.081 330.81 269.204 329.92 268.18 329.224C267.156 328.528 266.005 328.041 264.792 327.791C262.34 327.281 259.787 327.761 257.689 329.125C255.591 330.49 254.119 332.629 253.596 335.074L251.667 344.283C251.169 346.725 251.657 349.265 253.025 351.35C254.392 353.435 256.529 354.897 258.97 355.418Z" fill="#BC8271"/>
<path d="M240.496 351.566C242.947 352.076 245.501 351.596 247.599 350.231C249.697 348.866 251.168 346.728 251.692 344.283L253.621 335.074C253.874 333.864 253.886 332.616 253.656 331.401C253.426 330.187 252.959 329.029 252.281 327.995C251.602 326.961 250.727 326.07 249.703 325.374C248.68 324.678 247.53 324.191 246.318 323.939C245.103 323.679 243.85 323.662 242.628 323.888C241.407 324.114 240.243 324.579 239.203 325.256C238.162 325.933 237.266 326.808 236.566 327.832C235.865 328.856 235.375 330.008 235.122 331.222L233.184 340.431C232.687 342.874 233.176 345.415 234.545 347.501C235.914 349.586 238.053 351.047 240.496 351.566Z" fill="#BC8271"/>
<path d="M222.016 347.715C224.467 348.225 227.021 347.745 229.119 346.38C231.217 345.015 232.688 342.877 233.212 340.432L235.149 331.223C235.403 330.012 235.415 328.764 235.184 327.548C234.954 326.333 234.485 325.176 233.806 324.141C233.127 323.107 232.25 322.217 231.226 321.521C230.202 320.825 229.051 320.338 227.838 320.087C225.386 319.578 222.833 320.058 220.735 321.422C218.637 322.787 217.165 324.926 216.642 327.37L214.713 336.58C214.215 339.022 214.703 341.562 216.071 343.647C217.438 345.732 219.575 347.194 222.016 347.715Z" fill="#BC8271"/>
<path d="M269.415 352.776C269.13 352.774 268.848 352.708 268.591 352.583C268.334 352.458 268.108 352.277 267.931 352.054C267.753 351.83 267.628 351.57 267.564 351.292C267.501 351.013 267.501 350.724 267.564 350.446L270.526 337.823C270.583 337.581 270.687 337.352 270.832 337.15C270.977 336.948 271.16 336.776 271.372 336.645C271.583 336.514 271.819 336.425 272.065 336.385C272.31 336.344 272.562 336.352 272.804 336.409C273.047 336.465 273.276 336.569 273.478 336.714C273.681 336.859 273.853 337.042 273.984 337.253C274.116 337.464 274.205 337.699 274.245 337.945C274.286 338.19 274.278 338.441 274.221 338.683L271.276 351.263C271.185 351.689 270.951 352.072 270.613 352.347C270.275 352.623 269.852 352.774 269.415 352.776Z" fill="#363E44"/>
<path d="M251.597 347.797C251.449 347.796 251.301 347.779 251.157 347.745C250.915 347.688 250.686 347.584 250.484 347.439C250.282 347.294 250.11 347.11 249.98 346.898C249.849 346.686 249.762 346.45 249.723 346.205C249.684 345.959 249.695 345.708 249.754 345.466L253.431 330.101C253.545 329.611 253.849 329.188 254.277 328.922C254.704 328.657 255.219 328.572 255.709 328.686C256.199 328.8 256.623 329.104 256.889 329.53C257.155 329.957 257.24 330.471 257.126 330.961L253.44 346.326C253.344 346.743 253.11 347.116 252.775 347.383C252.441 347.65 252.025 347.796 251.597 347.797Z" fill="#363E44"/>
<path d="M232.728 343.573C232.577 343.576 232.427 343.559 232.281 343.521C231.792 343.405 231.369 343.099 231.106 342.672C230.843 342.245 230.76 341.73 230.877 341.242L234.666 325.386C234.813 324.932 235.125 324.55 235.54 324.315C235.956 324.08 236.445 324.01 236.91 324.118C237.375 324.226 237.783 324.505 238.051 324.899C238.32 325.294 238.431 325.775 238.361 326.246L234.571 342.094C234.478 342.512 234.244 342.887 233.909 343.155C233.574 343.424 233.158 343.571 232.728 343.573Z" fill="#363E44"/>
<path d="M485.051 314.591C484.9 314.59 484.75 314.573 484.603 314.539L431.991 301.762C431.739 301.715 431.499 301.618 431.286 301.476C431.073 301.334 430.89 301.151 430.75 300.937C430.61 300.723 430.515 300.482 430.47 300.23C430.426 299.978 430.433 299.72 430.491 299.471C430.549 299.222 430.658 298.987 430.809 298.781C430.961 298.575 431.153 298.402 431.374 298.272C431.595 298.142 431.839 298.058 432.093 298.025C432.348 297.993 432.606 298.012 432.852 298.081L485.464 310.85C485.911 310.965 486.3 311.238 486.561 311.618C486.821 311.998 486.934 312.459 486.879 312.916C486.825 313.373 486.606 313.795 486.263 314.103C485.92 314.411 485.477 314.584 485.016 314.591H485.051Z" fill="#363E44"/>
<path d="M618.574 467.898L669.945 315.358C669.945 315.358 686.834 262.906 685.99 244.746C684.414 210.644 674.183 183.326 631.914 161.744C598.86 144.865 545.654 141.322 501.06 158.15C451.549 176.834 449.146 263.551 420.304 391L618.574 467.898Z" fill="white"/>
<path d="M501.058 158.152C501.058 158.152 449.901 171.91 435.803 222.47C423.186 267.75 423.548 279.221 423.548 279.221L469.33 285.334L501.058 158.152Z" fill="white"/>
<path d="M442.178 283.061C442.054 283.069 441.931 283.069 441.807 283.061C441.315 282.961 440.881 282.671 440.6 282.254C440.32 281.837 440.215 281.327 440.309 280.834C443.642 263.894 446.734 250.876 449.584 239.328C449.644 239.086 449.75 238.859 449.898 238.658C450.045 238.458 450.231 238.288 450.444 238.159C450.657 238.03 450.893 237.944 451.14 237.907C451.386 237.869 451.637 237.88 451.879 237.939C452.121 237.999 452.349 238.105 452.55 238.252C452.751 238.399 452.921 238.585 453.05 238.797C453.179 239.01 453.265 239.246 453.303 239.492C453.341 239.738 453.33 239.989 453.27 240.231C450.437 251.736 447.354 264.703 444.038 281.564C443.947 281.989 443.713 282.37 443.374 282.642C443.035 282.915 442.613 283.062 442.178 283.061Z" fill="#363E44"/>
<path d="M211.604 342.168H408.134V349.872L205.11 355.926L211.604 342.168Z" fill="white"/>
<path d="M99.1713 364.433H273.56C274.967 364.433 276.353 364.079 277.587 363.403C278.821 362.727 279.865 361.751 280.621 360.566C281.378 359.38 281.822 358.023 281.914 356.621C282.006 355.218 281.742 353.815 281.147 352.541L203.887 187.955H0.0449219L75.9786 349.721C78.0444 354.12 81.3231 357.841 85.4307 360.446C89.5384 363.052 94.3047 364.435 99.1713 364.433Z" fill="#363E44"/>
<path d="M408.133 346.711C408.132 349.051 407.669 351.369 406.771 353.53C405.873 355.692 404.557 357.656 402.898 359.31C401.239 360.963 399.27 362.274 397.104 363.168C394.937 364.062 392.616 364.521 390.272 364.519H219.75L211.396 346.711H408.133Z" fill="#363E44"/>
<path d="M140.951 283.748C145.702 281.874 147.449 275.038 144.854 268.479C142.258 261.92 136.302 258.123 131.552 259.997C126.801 261.871 125.053 268.707 127.649 275.266C130.244 281.825 136.2 285.622 140.951 283.748Z" fill="white"/>
<path d="M577.725 351.718L671.331 335.071V307.641L577.725 293.746V351.718Z" fill="#E2A18D"/>
<path d="M584.183 195.719C590.151 186.046 605.773 174.085 617.133 173.242C633.177 172.064 655.681 176.329 671.691 196.364C695.9 226.666 694.996 320.107 694.996 320.107L560.887 297.828C560.887 297.828 563.057 229.967 584.183 195.719Z" fill="white"/>
<path d="M577.484 302.342H577.183L558.925 299.47L558.977 297.751C558.977 297.329 560.441 255.136 571.249 220.698C571.324 220.461 571.444 220.241 571.604 220.05C571.764 219.86 571.96 219.703 572.18 219.588C572.401 219.473 572.642 219.402 572.89 219.38C573.138 219.359 573.388 219.386 573.626 219.46C573.863 219.535 574.084 219.655 574.275 219.815C574.465 219.974 574.623 220.17 574.738 220.39C574.853 220.611 574.924 220.852 574.946 221.099C574.968 221.347 574.941 221.596 574.866 221.833C565.393 251.929 563.231 288.043 562.809 296.203L577.717 298.576C578.197 298.64 578.634 298.885 578.938 299.261C579.243 299.637 579.392 300.115 579.354 300.597C579.317 301.079 579.096 301.529 578.737 301.853C578.378 302.178 577.908 302.353 577.424 302.342H577.484Z" fill="#363E44"/>
<path d="M609.201 428.374C644.511 432.983 671.329 405.855 671.329 368.124V335.071L429.551 295.414C368.292 287.434 326.902 315.81 321.227 371.297L409.837 390.876L609.201 428.374Z" fill="#E2A18D"/>
<path d="M328.007 345.044C327.762 345.044 327.519 344.997 327.292 344.906C327.061 344.813 326.851 344.675 326.674 344.5C326.496 344.325 326.355 344.117 326.258 343.888C326.161 343.659 326.111 343.413 326.109 343.164C326.108 342.915 326.156 342.669 326.25 342.438C340.029 308.732 371.266 290.847 414.223 292.24C414.483 292.233 414.741 292.278 414.982 292.374C415.223 292.471 415.442 292.615 415.625 292.798C415.808 292.982 415.951 293.201 416.046 293.442C416.142 293.683 416.187 293.941 416.178 294.2C416.17 294.458 416.109 294.713 415.999 294.947C415.888 295.182 415.731 295.391 415.537 295.563C415.342 295.735 415.115 295.865 414.868 295.945C414.622 296.026 414.361 296.055 414.103 296.032C372.85 294.759 342.906 311.733 329.772 343.866C329.629 344.215 329.384 344.514 329.069 344.723C328.755 344.933 328.385 345.045 328.007 345.044Z" fill="#363E44"/>
<path d="M397.085 405.232C400.073 405.62 403.094 404.809 405.484 402.976C407.873 401.143 409.437 398.439 409.831 395.456L411.304 384.226C411.499 382.748 411.4 381.246 411.013 379.806C410.627 378.366 409.96 377.016 409.05 375.833C408.141 374.651 407.007 373.659 405.714 372.914C404.42 372.169 402.993 371.685 401.512 371.491C400.032 371.297 398.528 371.396 397.086 371.782C395.645 372.168 394.293 372.834 393.109 373.742C391.926 374.65 390.933 375.782 390.188 377.074C389.442 378.365 388.959 379.79 388.766 381.268L387.285 392.498C387.089 393.977 387.187 395.48 387.574 396.921C387.96 398.362 388.628 399.712 389.539 400.895C390.449 402.078 391.584 403.07 392.879 403.815C394.174 404.559 395.603 405.041 397.085 405.232Z" fill="#E2A18D"/>
<path d="M374.521 402.247C376.001 402.442 377.505 402.343 378.947 401.957C380.388 401.571 381.74 400.904 382.923 399.997C384.107 399.089 385.1 397.956 385.845 396.665C386.591 395.374 387.074 393.948 387.267 392.471L388.74 381.241C388.934 379.762 388.835 378.259 388.447 376.819C388.059 375.378 387.39 374.028 386.479 372.846C385.568 371.664 384.432 370.673 383.137 369.93C381.842 369.186 380.412 368.706 378.93 368.515C375.942 368.127 372.922 368.938 370.532 370.771C368.143 372.604 366.579 375.309 366.184 378.291L364.703 389.521C364.317 392.508 365.134 395.526 366.975 397.912C368.816 400.298 371.53 401.857 374.521 402.247Z" fill="#E2A18D"/>
<path d="M351.955 399.298C353.435 399.493 354.939 399.394 356.381 399.008C357.823 398.621 359.174 397.955 360.358 397.047C361.542 396.139 362.535 395.007 363.28 393.716C364.025 392.425 364.508 390.999 364.701 389.521L366.183 378.292C366.377 376.813 366.278 375.311 365.891 373.871C365.504 372.431 364.836 371.082 363.925 369.9C363.015 368.718 361.88 367.726 360.586 366.983C359.292 366.239 357.863 365.758 356.382 365.566C354.902 365.371 353.398 365.47 351.957 365.856C350.515 366.242 349.163 366.908 347.98 367.816C346.796 368.724 345.803 369.856 345.058 371.148C344.312 372.439 343.829 373.864 343.636 375.342L342.163 386.521C341.962 388.002 342.057 389.508 342.44 390.953C342.824 392.398 343.49 393.753 344.4 394.941C345.31 396.128 346.446 397.124 347.742 397.872C349.039 398.62 350.471 399.104 351.955 399.298Z" fill="#E2A18D"/>
<path d="M329.39 396.353C332.379 396.743 335.4 395.932 337.791 394.099C340.181 392.266 341.744 389.56 342.136 386.576L343.618 375.346C344.009 372.36 343.196 369.341 341.358 366.953C339.52 364.565 336.808 363.003 333.817 362.612C330.828 362.221 327.807 363.032 325.417 364.865C323.026 366.698 321.463 369.404 321.071 372.388L319.598 383.618C319.402 385.096 319.5 386.599 319.886 388.039C320.273 389.48 320.94 390.83 321.849 392.013C322.759 393.196 323.893 394.188 325.187 394.932C326.481 395.677 327.909 396.16 329.39 396.353Z" fill="#E2A18D"/>
<path d="M386.678 397.69C386.581 397.699 386.483 397.699 386.386 397.69C386.139 397.653 385.902 397.567 385.688 397.437C385.475 397.308 385.289 397.137 385.142 396.936C384.995 396.735 384.889 396.506 384.83 396.264C384.772 396.021 384.762 395.77 384.801 395.524L387.893 375.643C387.918 375.386 387.995 375.136 388.121 374.91C388.246 374.683 388.416 374.485 388.621 374.326C388.826 374.168 389.061 374.053 389.312 373.988C389.563 373.923 389.824 373.911 390.08 373.95C390.336 373.99 390.581 374.082 390.801 374.22C391.02 374.358 391.209 374.539 391.356 374.752C391.502 374.965 391.604 375.206 391.654 375.46C391.704 375.714 391.702 375.975 391.648 376.228L388.556 396.108C388.479 396.55 388.249 396.951 387.905 397.24C387.562 397.529 387.128 397.689 386.678 397.69Z" fill="#363E44"/>
<path d="M364.787 393.371H364.485C364.239 393.332 364.004 393.245 363.792 393.115C363.58 392.985 363.395 392.815 363.25 392.613C363.104 392.412 363 392.184 362.943 391.942C362.886 391.7 362.877 391.449 362.918 391.204L365.923 372.399C366.022 371.919 366.302 371.496 366.706 371.218C367.11 370.939 367.605 370.827 368.089 370.905C368.574 370.983 369.009 371.244 369.305 371.634C369.601 372.025 369.735 372.514 369.678 373.001L366.664 391.806C366.587 392.246 366.356 392.645 366.012 392.931C365.668 393.218 365.234 393.373 364.787 393.371Z" fill="#363E44"/>
<path d="M341.716 390.022H341.415C341.169 389.983 340.933 389.896 340.721 389.766C340.509 389.636 340.325 389.465 340.179 389.264C340.034 389.063 339.929 388.834 339.872 388.592C339.815 388.351 339.807 388.1 339.847 387.855L342.948 368.456C342.987 368.211 343.074 367.975 343.204 367.763C343.334 367.551 343.505 367.367 343.707 367.221C343.908 367.075 344.136 366.97 344.379 366.912C344.621 366.854 344.872 366.844 345.118 366.883C345.364 366.922 345.6 367.009 345.812 367.139C346.025 367.269 346.209 367.439 346.356 367.64C346.502 367.841 346.607 368.07 346.665 368.311C346.723 368.553 346.733 368.804 346.694 369.05L343.594 388.448C343.518 388.89 343.288 389.291 342.944 389.579C342.6 389.867 342.165 390.024 341.716 390.022Z" fill="#363E44"/>
<path d="M642.343 332.204H642.033L577.631 321.645C577.385 321.604 577.149 321.515 576.937 321.384C576.726 321.252 576.542 321.08 576.397 320.878C576.252 320.676 576.148 320.447 576.091 320.204C576.035 319.962 576.027 319.711 576.068 319.465C576.108 319.219 576.197 318.984 576.329 318.773C576.461 318.562 576.633 318.378 576.835 318.233C577.038 318.088 577.267 317.985 577.51 317.928C577.753 317.872 578.005 317.864 578.251 317.904L642.653 328.463C643.135 328.527 643.574 328.773 643.88 329.151C644.186 329.529 644.334 330.01 644.294 330.494C644.254 330.978 644.029 331.428 643.666 331.751C643.303 332.075 642.829 332.246 642.343 332.23V332.204Z" fill="#363E44"/>
<path d="M560.839 188.8L559.415 188.923C555.769 189.237 552.096 188.831 548.607 187.728C545.118 186.625 541.881 184.847 539.08 182.494C536.279 180.142 533.97 177.262 532.284 174.019C530.598 170.776 529.569 167.233 529.254 163.592L521.252 70.9679C520.992 67.9652 521.328 64.941 522.239 62.0678C523.15 59.1946 524.619 56.5287 526.563 54.2223C528.506 51.916 530.885 50.0144 533.564 48.626C536.243 47.2377 539.17 46.3898 542.177 46.1308L553.332 45.1701C556.342 44.9064 559.374 45.2377 562.256 46.1451C565.137 47.0525 567.811 48.5183 570.125 50.4585C572.439 52.3986 574.346 54.7752 575.739 57.4522C577.132 60.1293 577.983 63.0542 578.242 66.0597L586.245 158.684C586.559 162.325 586.152 165.991 585.048 169.475C583.943 172.959 582.162 176.191 579.806 178.987C577.45 181.783 574.565 184.089 571.317 185.772C568.069 187.455 564.52 188.483 560.874 188.798L560.839 188.8Z" fill="#E2A18D"/>
<path d="M543.198 29.5438C541.191 29.26 521.917 26.8782 509.714 39.5698C500.637 49.0282 499.069 61.5564 499.62 82.9928C500.284 108.247 504.211 123.243 511.273 128.514C522.425 136.846 557.589 120.732 571.455 99.2786C581.471 83.8011 581.264 63.3278 572.049 47.214C562.834 31.1001 544.481 29.7157 543.198 29.5438Z" fill="#E2A18D"/>
<path d="M500.851 57.8482C516.353 52.603 521.245 53.4457 522.597 55.4922C523.733 57.2119 521.908 59.181 523.312 60.9007C525.654 63.7812 532.13 59.9806 541.587 62.6204C542.462 62.863 543.324 63.15 544.17 63.4803C543.699 72.1649 543.223 80.8466 542.741 89.5255L579.291 89.9038C581.843 87.3637 584.725 85.1773 587.86 83.4033C596.894 78.3043 601.536 79.6457 605.42 76.146C612.809 69.5079 608.004 53.2049 606.617 48.2865C601.631 31.1323 589.488 21.1923 584.863 17.5121C576.649 11.0823 567.157 6.47424 557.02 3.99504C550.724 2.27531 531.829 -2.68609 511.616 4.8549C502.048 8.42332 497.268 12.8086 496.2 13.8232C488.32 21.2525 482.085 33.6001 485.917 39.0086C487.64 41.4334 489.991 40.5908 493.668 43.3079C498.569 46.8935 500.231 53.0674 500.851 57.8482Z" fill="#363E44"/>
<path d="M526.344 132.659C525.875 132.656 525.424 132.48 525.078 132.165C524.731 131.85 524.513 131.419 524.465 130.954C524.417 130.489 524.543 130.022 524.818 129.643C525.093 129.265 525.498 129.001 525.956 128.902C539.951 125.996 560.224 114.026 569.93 99.0303C570.203 98.6084 570.633 98.312 571.124 98.2064C571.616 98.1008 572.13 98.1946 572.552 98.4671C572.975 98.7396 573.272 99.1686 573.377 99.6596C573.483 100.151 573.389 100.663 573.116 101.085C562.498 117.509 541.251 129.59 526.731 132.617C526.604 132.643 526.474 132.657 526.344 132.659Z" fill="#363E44"/>
<path d="M539.823 73.8157C537.892 78.6673 534.903 83.029 531.074 86.5846C529.79 87.7368 522.866 75.1828 524.606 74.6583C529.557 73.2777 534.75 72.9902 539.823 73.8157Z" fill="white"/>
<path d="M506.337 92.7513C506.337 92.7513 517.533 94.9439 526.739 89.716C528.303 88.8266 529.765 87.7684 531.097 86.5603C531.139 84.1906 530.57 81.8499 529.445 79.7629C528.32 77.6759 526.676 75.9127 524.672 74.6426C522.841 75.1807 521.076 75.922 519.41 76.8524C510.169 82.0804 506.337 92.7513 506.337 92.7513Z" fill="#363E44"/>
<path d="M515.615 110.401C514.29 110.399 512.99 110.039 511.852 109.361C511.638 109.234 511.45 109.066 511.301 108.867C511.152 108.667 511.043 108.441 510.982 108.2C510.92 107.958 510.907 107.708 510.942 107.461C510.978 107.215 511.062 106.978 511.189 106.764C511.316 106.55 511.484 106.363 511.684 106.214C511.883 106.065 512.11 105.957 512.352 105.895C512.593 105.834 512.845 105.82 513.091 105.856C513.338 105.891 513.575 105.975 513.79 106.102C514.393 106.482 515.103 106.659 515.814 106.606C516.526 106.554 517.202 106.274 517.743 105.81C518.116 105.395 518.389 104.9 518.538 104.363C518.687 103.826 518.71 103.261 518.604 102.714C518.504 102.223 518.6 101.713 518.872 101.292C519.144 100.871 519.57 100.572 520.059 100.461C520.545 100.353 521.053 100.441 521.474 100.705C521.895 100.969 522.194 101.388 522.307 101.871C522.307 102.035 523.168 105.913 520.344 108.587C519.055 109.769 517.365 110.418 515.615 110.401Z" fill="#363E44"/>
<path d="M501.653 91.0352C501.708 92.719 501.347 94.3905 500.602 95.902C499.483 98.1118 498.019 98.7309 498.019 100.158C498.019 101.113 498.613 102.506 501.687 104.251L501.653 91.0352Z" fill="#BC8271"/>
<path d="M501.694 106.149C501.366 106.15 501.042 106.067 500.755 105.908C497.603 104.119 496.087 102.228 496.122 100.13C496.21 98.9058 496.743 97.7562 497.62 96.8966C498.122 96.3348 498.553 95.714 498.903 95.0479C499.516 93.8154 499.812 92.4503 499.765 91.0754C499.787 90.5932 499.993 90.1377 500.339 89.8012C500.686 89.4648 501.148 89.2727 501.631 89.264C502.115 89.2552 502.583 89.4305 502.942 89.7541C503.301 90.0777 503.523 90.5255 503.563 91.0066C503.621 92.9979 503.189 94.9731 502.305 96.759C501.831 97.6816 501.253 98.547 500.583 99.3386C500.329 99.5898 500.116 99.8801 499.954 100.198C499.954 100.499 500.514 101.385 502.667 102.606C503.034 102.811 503.322 103.132 503.486 103.519C503.651 103.905 503.681 104.335 503.574 104.741C503.466 105.147 503.227 105.505 502.892 105.76C502.558 106.015 502.149 106.152 501.728 106.149H501.694Z" fill="#363E44"/>
<path d="M549.923 76.0488C551.223 69.746 559.689 67.0891 564.874 69.8062C571.462 73.2457 573.486 82.3688 569.369 90.142C566.053 96.4189 559.749 99.91 553.971 99.1791L548.691 96.9091C548.691 96.9091 548.588 82.4548 549.923 76.0488Z" fill="#E2A18D"/>
<path d="M555.522 101.177C554.926 101.179 554.331 101.141 553.74 101.066C553.241 101.003 552.787 100.745 552.478 100.348C552.17 99.9514 552.032 99.4486 552.095 98.9503C552.157 98.4521 552.416 97.9991 552.813 97.6911C553.211 97.3831 553.714 97.2453 554.213 97.308C559.381 97.9529 564.806 94.7284 567.691 89.2597C569.632 85.7417 570.105 81.6018 569.009 77.7376C568.628 76.4179 567.989 75.1866 567.129 74.1151C566.269 73.0436 565.204 72.153 563.997 71.495C559.691 69.2421 554.093 70.4889 550.045 74.5991C549.87 74.7764 549.662 74.9175 549.433 75.0146C549.204 75.1116 548.957 75.1625 548.708 75.1645C548.459 75.1665 548.212 75.1195 547.981 75.0262C547.75 74.9329 547.54 74.795 547.362 74.6206C547.185 74.4461 547.043 74.2384 546.946 74.0094C546.849 73.7804 546.798 73.5345 546.796 73.2858C546.794 73.0371 546.841 72.7904 546.935 72.5598C547.028 72.3293 547.166 72.1194 547.341 71.9421C552.568 66.6282 559.975 65.0632 565.762 68.1329C567.416 69.022 568.877 70.23 570.059 71.6868C571.242 73.1436 572.123 74.8203 572.652 76.6197C574.047 81.4414 573.477 86.618 571.067 91.0224C567.752 97.2736 561.68 101.177 555.522 101.177Z" fill="#363E44"/>
<path d="M562.618 90.3338C562.2 90.3339 561.794 90.1947 561.464 89.9382C561.266 89.7866 561.101 89.5975 560.976 89.3817C560.852 89.166 560.772 88.9279 560.74 88.6811C560.708 88.4343 560.725 88.1836 560.79 87.9434C560.855 87.7032 560.967 87.4782 561.12 87.2813C561.387 86.9357 561.623 86.5674 561.826 86.1806C562.7 84.6074 562.916 82.7533 562.429 81.0215C562.275 80.4651 562.01 79.9454 561.65 79.4933C561.291 79.0413 560.844 78.6661 560.336 78.3903C559.778 78.0959 559.158 77.9396 558.527 77.9345C558.046 77.9022 557.595 77.6883 557.265 77.3363C556.935 76.9843 556.752 76.5204 556.752 76.0386C556.752 75.5567 556.935 75.0928 557.265 74.7408C557.595 74.3888 558.046 74.175 558.527 74.1426C559.747 74.1521 560.947 74.4465 562.032 75.0024C562.979 75.5112 563.816 76.2026 564.493 77.0366C565.17 77.8706 565.674 78.8305 565.977 79.8607C566.761 82.5464 566.452 85.4328 565.116 87.8918C564.814 88.4731 564.459 89.0257 564.056 89.5427C563.891 89.7734 563.676 89.9642 563.427 90.1011C563.178 90.238 562.902 90.3175 562.618 90.3338Z" fill="#363E44"/>
<rect x="496" y="510" width="155" height="282" fill="#03448A"/>
</svg>
