<svg width="425" height="420" viewBox="0 0 425 420" fill="none" xmlns="http://www.w3.org/2000/svg">
<path d="M248.662 414.386L299.274 438.989L314.44 372.215L252.464 356.484L248.662 414.386Z" fill="#E2A18D"/>
<path d="M347.924 492.135L347.461 365.676H288.824L289.281 438.714C289.286 445.735 290.676 452.686 293.372 459.171C296.068 465.656 300.017 471.547 304.993 476.507C309.97 481.468 315.876 485.402 322.375 488.083C328.874 490.764 335.839 492.141 342.871 492.135H347.924Z" fill="#C3E0FF"/>
<path d="M146.15 242.822C125.696 229.488 100.153 226.25 82.9834 231.356C54.2755 239.891 33.2921 275.365 78.9588 311.674L263.045 436.175L298.046 336.774L146.15 242.822Z" fill="#005ABA"/>
<path d="M417.293 305.702C417.293 305.702 415.278 356.156 357.525 356.156H133.162L143.485 241.434L293.54 262.03L417.293 305.702Z" fill="#005ABA"/>
<path d="M213.993 335.318L192.504 475.045H66.0918L143.486 241.443L213.993 335.318Z" fill="#005ABA"/>
<path d="M111.623 338.97C111.481 338.968 111.339 338.946 111.202 338.904C110.868 338.793 110.592 338.554 110.434 338.24C110.276 337.925 110.25 337.562 110.36 337.228L132.487 270.448C132.541 270.284 132.628 270.131 132.742 270C132.856 269.868 132.995 269.761 133.15 269.683C133.306 269.605 133.475 269.559 133.649 269.546C133.823 269.534 133.997 269.556 134.162 269.611C134.327 269.665 134.48 269.752 134.611 269.866C134.743 269.98 134.851 270.118 134.929 270.273C135.006 270.429 135.053 270.598 135.066 270.771C135.078 270.944 135.056 271.118 135.001 271.283L112.881 338.033C112.797 338.301 112.63 338.537 112.404 338.705C112.179 338.873 111.905 338.966 111.623 338.97Z" fill="#E6D0BE"/>
<path d="M203.578 404.363H203.362C203.015 404.305 202.705 404.113 202.5 403.828C202.295 403.544 202.211 403.189 202.267 402.843L209.829 356.714C209.879 356.403 210.039 356.12 210.279 355.916C210.519 355.713 210.825 355.601 211.14 355.603H302.762C302.944 355.59 303.126 355.616 303.298 355.677C303.469 355.738 303.627 355.833 303.76 355.957C303.893 356.082 303.999 356.232 304.071 356.399C304.144 356.565 304.181 356.745 304.181 356.927C304.181 357.109 304.144 357.289 304.071 357.456C303.999 357.622 303.893 357.773 303.76 357.897C303.627 358.021 303.469 358.116 303.298 358.177C303.126 358.238 302.944 358.264 302.762 358.251H212.265L204.89 403.3C204.828 403.601 204.664 403.872 204.425 404.066C204.186 404.26 203.886 404.365 203.578 404.363Z" fill="#E6D0BE"/>
<path d="M300.506 227.41L355.329 221.884L356.538 206.039L303.063 193.912L300.506 227.41Z" fill="#BC8271"/>
<path d="M315.317 273.086C335.512 277.291 352.206 262.791 353.873 240.994L355.329 221.887L217.372 188.39C182.329 181.086 157.165 195.663 151.432 227.491L201.773 242.688L315.317 273.086Z" fill="#E2A18D"/>
<path d="M193.779 250.407C195.492 250.763 197.275 250.428 198.741 249.474C200.206 248.521 201.234 247.027 201.6 245.32L202.947 238.881C203.124 238.036 203.133 237.164 202.972 236.316C202.811 235.468 202.485 234.66 202.011 233.938C201.537 233.216 200.925 232.595 200.211 232.109C199.496 231.624 198.692 231.284 197.846 231.108C196.998 230.927 196.122 230.915 195.269 231.073C194.416 231.231 193.603 231.556 192.876 232.028C192.149 232.501 191.523 233.113 191.034 233.828C190.545 234.543 190.202 235.348 190.025 236.196L188.672 242.629C188.324 244.336 188.666 246.11 189.622 247.567C190.579 249.024 192.073 250.044 193.779 250.407Z" fill="#E2A18D"/>
<path d="M180.867 247.713C182.58 248.069 184.363 247.734 185.829 246.78C187.294 245.827 188.322 244.333 188.688 242.625L190.041 236.193C190.218 235.347 190.227 234.475 190.066 233.626C189.905 232.777 189.577 231.968 189.103 231.246C188.629 230.523 188.016 229.901 187.301 229.416C186.585 228.93 185.781 228.589 184.934 228.414C183.222 228.058 181.438 228.393 179.972 229.347C178.507 230.3 177.479 231.794 177.113 233.502L175.766 239.935C175.418 241.641 175.759 243.415 176.714 244.871C177.669 246.328 179.162 247.349 180.867 247.713Z" fill="#BC8271"/>
<path d="M167.963 245.022C169.675 245.378 171.459 245.043 172.924 244.09C174.39 243.136 175.418 241.643 175.783 239.935L177.131 233.502C177.308 232.657 177.316 231.785 177.156 230.936C176.995 230.088 176.669 229.279 176.195 228.557C175.721 227.835 175.109 227.213 174.395 226.726C173.68 226.24 172.876 225.899 172.03 225.724C171.181 225.542 170.305 225.53 169.453 225.688C168.6 225.846 167.786 226.171 167.06 226.644C166.333 227.116 165.707 227.728 165.217 228.443C164.728 229.158 164.385 229.963 164.209 230.811L162.855 237.244C162.508 238.951 162.849 240.726 163.806 242.182C164.762 243.639 166.256 244.66 167.963 245.022Z" fill="#BC8271"/>
<path d="M155.055 242.332C156.767 242.688 158.551 242.353 160.016 241.399C161.482 240.446 162.51 238.952 162.875 237.245L164.229 230.812C164.406 229.966 164.414 229.094 164.253 228.245C164.092 227.396 163.765 226.588 163.291 225.865C162.816 225.143 162.204 224.521 161.488 224.035C160.773 223.549 159.969 223.209 159.121 223.033C157.409 222.677 155.625 223.013 154.16 223.966C152.694 224.919 151.666 226.413 151.301 228.121L149.953 234.554C149.606 236.26 149.946 238.034 150.902 239.49C151.857 240.947 153.349 241.968 155.055 242.332Z" fill="#BC8271"/>
<path d="M188.164 245.87C187.965 245.869 187.768 245.823 187.588 245.735C187.409 245.648 187.251 245.522 187.127 245.365C187.003 245.209 186.916 245.027 186.871 244.833C186.827 244.639 186.827 244.437 186.871 244.242L188.94 235.425C188.98 235.256 189.052 235.096 189.154 234.955C189.255 234.814 189.383 234.694 189.531 234.602C189.679 234.51 189.843 234.448 190.015 234.42C190.187 234.392 190.362 234.397 190.532 234.437C190.701 234.476 190.861 234.549 191.002 234.65C191.144 234.751 191.264 234.879 191.356 235.027C191.448 235.174 191.51 235.338 191.538 235.51C191.566 235.681 191.561 235.856 191.521 236.026L189.464 244.813C189.401 245.111 189.237 245.378 189.001 245.57C188.764 245.763 188.469 245.868 188.164 245.87Z" fill="#363E44"/>
<path d="M175.717 242.39C175.614 242.39 175.511 242.377 175.41 242.354C175.241 242.314 175.081 242.241 174.94 242.14C174.799 242.038 174.679 241.91 174.588 241.762C174.497 241.614 174.436 241.449 174.409 241.278C174.382 241.106 174.389 240.931 174.43 240.762L176.999 230.028C177.078 229.687 177.291 229.391 177.589 229.205C177.888 229.02 178.248 228.961 178.59 229.04C178.932 229.12 179.229 229.332 179.414 229.63C179.6 229.928 179.659 230.287 179.579 230.629L177.005 241.363C176.938 241.654 176.774 241.914 176.541 242.101C176.307 242.287 176.017 242.389 175.717 242.39Z" fill="#363E44"/>
<path d="M162.537 239.439C162.431 239.441 162.326 239.429 162.224 239.403C161.882 239.321 161.587 239.108 161.403 238.81C161.219 238.511 161.162 238.152 161.243 237.811L163.89 226.735C163.992 226.418 164.21 226.151 164.501 225.987C164.791 225.823 165.133 225.773 165.458 225.849C165.782 225.925 166.067 226.12 166.255 226.395C166.443 226.67 166.52 227.006 166.471 227.336L163.824 238.406C163.758 238.698 163.595 238.96 163.361 239.147C163.127 239.335 162.837 239.438 162.537 239.439Z" fill="#363E44"/>
<path d="M338.793 219.194C338.688 219.194 338.583 219.181 338.48 219.158L301.729 210.232C301.553 210.199 301.385 210.132 301.236 210.033C301.087 209.934 300.96 209.805 300.862 209.656C300.764 209.506 300.698 209.338 300.667 209.163C300.636 208.987 300.64 208.806 300.681 208.632C300.722 208.458 300.798 208.294 300.904 208.15C301.01 208.006 301.144 207.885 301.298 207.794C301.452 207.704 301.623 207.645 301.801 207.622C301.978 207.599 302.158 207.613 302.33 207.661L339.082 216.581C339.394 216.661 339.666 216.852 339.848 217.117C340.029 217.382 340.109 217.705 340.07 218.024C340.032 218.343 339.879 218.638 339.64 218.853C339.4 219.068 339.091 219.189 338.769 219.194H338.793Z" fill="#363E44"/>
<path d="M432.062 326.284L467.947 219.73C467.947 219.73 479.745 183.091 479.155 170.405C478.054 146.584 470.907 127.501 441.381 112.425C418.292 100.635 381.126 98.16 349.976 109.915C315.39 122.966 313.712 183.541 293.564 272.568L432.062 326.284Z" fill="white"/>
<path d="M349.974 109.916C349.974 109.916 314.239 119.526 304.391 154.844C295.578 186.474 295.831 194.486 295.831 194.486L327.811 198.757L349.974 109.916Z" fill="white"/>
<path d="M308.844 197.17C308.758 197.176 308.672 197.176 308.586 197.17C308.241 197.1 307.939 196.898 307.743 196.607C307.547 196.316 307.474 195.959 307.539 195.614C309.867 183.782 312.027 174.688 314.018 166.621C314.06 166.453 314.134 166.294 314.237 166.154C314.34 166.013 314.47 165.895 314.619 165.805C314.767 165.715 314.933 165.655 315.105 165.629C315.277 165.602 315.452 165.61 315.621 165.651C315.79 165.693 315.95 165.767 316.09 165.87C316.23 165.973 316.349 166.102 316.439 166.251C316.529 166.399 316.59 166.564 316.616 166.736C316.642 166.908 316.634 167.083 316.593 167.252C314.614 175.289 312.46 184.346 310.144 196.125C310.08 196.422 309.917 196.687 309.68 196.878C309.443 197.068 309.148 197.171 308.844 197.17Z" fill="#363E44"/>
<path d="M147.78 238.457H285.063V243.839L143.244 248.067L147.78 238.457Z" fill="white"/>
<path d="M69.243 254.01H191.059C192.042 254.01 193.01 253.763 193.872 253.291C194.734 252.818 195.463 252.137 195.992 251.309C196.52 250.48 196.831 249.533 196.895 248.553C196.959 247.573 196.775 246.593 196.359 245.703L142.39 130.734H0L53.0421 243.733C54.4852 246.806 56.7755 249.405 59.6448 251.225C62.5141 253.045 65.8436 254.011 69.243 254.01Z" fill="#363E44"/>
<path d="M285.064 241.631C285.063 243.266 284.74 244.884 284.112 246.394C283.485 247.904 282.565 249.276 281.407 250.431C280.248 251.587 278.873 252.502 277.359 253.127C275.846 253.751 274.224 254.072 272.587 254.07H153.472L147.637 241.631H285.064Z" fill="#363E44"/>
<path d="M98.4283 197.65C101.747 196.341 102.967 191.566 101.154 186.984C99.3413 182.403 95.1812 179.75 91.8625 181.059C88.5438 182.368 87.3233 187.144 89.1364 191.725C90.9495 196.307 95.1096 198.959 98.4283 197.65Z" fill="white"/>
<path d="M403.527 245.128L468.914 233.5V214.339L403.527 204.633V245.128Z" fill="#E2A18D"/>
<path d="M408.039 136.158C412.208 129.401 423.12 121.046 431.055 120.458C442.263 119.635 457.983 122.614 469.166 136.609C486.077 157.776 485.445 223.047 485.445 223.047L391.766 207.485C391.766 207.485 393.282 160.082 408.039 136.158Z" fill="white"/>
<path d="M403.361 210.638H403.15L390.396 208.632L390.433 207.431C390.433 207.137 391.455 177.663 399.005 153.607C399.057 153.442 399.142 153.288 399.253 153.155C399.365 153.022 399.502 152.912 399.656 152.832C399.81 152.751 399.979 152.702 400.152 152.687C400.325 152.671 400.5 152.69 400.666 152.742C400.831 152.795 400.986 152.879 401.119 152.99C401.252 153.102 401.362 153.238 401.443 153.392C401.523 153.546 401.572 153.714 401.588 153.887C401.603 154.06 401.584 154.235 401.532 154.4C394.914 175.423 393.404 200.65 393.11 206.35L403.523 208.008C403.858 208.052 404.164 208.224 404.376 208.486C404.589 208.749 404.693 209.083 404.667 209.419C404.641 209.756 404.486 210.07 404.236 210.297C403.985 210.523 403.657 210.646 403.319 210.638H403.361Z" fill="#363E44"/>
<path d="M425.515 298.675C450.18 301.894 468.914 282.944 468.914 256.588V233.499L300.023 205.797C257.232 200.223 228.32 220.045 224.355 258.804L286.253 272.481L425.515 298.675Z" fill="#E2A18D"/>
<path d="M229.093 240.466C228.922 240.466 228.752 240.433 228.594 240.369C228.432 240.304 228.286 240.208 228.162 240.086C228.038 239.964 227.939 239.818 227.872 239.658C227.804 239.498 227.769 239.326 227.768 239.153C227.767 238.979 227.8 238.807 227.866 238.646C237.491 215.1 259.311 202.607 289.318 203.58C289.499 203.575 289.68 203.607 289.848 203.674C290.016 203.741 290.169 203.842 290.297 203.97C290.425 204.099 290.525 204.252 290.592 204.42C290.658 204.588 290.689 204.768 290.684 204.949C290.678 205.13 290.635 205.308 290.558 205.472C290.481 205.635 290.371 205.782 290.236 205.902C290.1 206.021 289.941 206.112 289.769 206.169C289.596 206.225 289.414 206.245 289.234 206.229C260.418 205.34 239.501 217.197 230.326 239.643C230.226 239.887 230.055 240.095 229.835 240.242C229.616 240.388 229.357 240.466 229.093 240.466Z" fill="#363E44"/>
<path d="M277.346 282.51C279.434 282.781 281.543 282.214 283.213 280.934C284.882 279.653 285.974 277.764 286.25 275.681L287.278 267.836C287.415 266.804 287.346 265.755 287.076 264.749C286.805 263.743 286.339 262.8 285.704 261.974C285.069 261.148 284.277 260.455 283.374 259.934C282.47 259.414 281.473 259.076 280.438 258.941C279.405 258.805 278.354 258.874 277.347 259.144C276.34 259.413 275.396 259.879 274.569 260.513C273.742 261.147 273.049 261.938 272.528 262.84C272.007 263.742 271.67 264.738 271.535 265.77L270.5 273.614C270.363 274.648 270.432 275.697 270.702 276.704C270.972 277.711 271.439 278.654 272.075 279.48C272.711 280.307 273.504 281 274.408 281.52C275.313 282.039 276.311 282.376 277.346 282.51Z" fill="#E2A18D"/>
<path d="M261.584 280.424C262.617 280.56 263.668 280.491 264.675 280.222C265.682 279.952 266.626 279.486 267.453 278.852C268.28 278.218 268.974 277.427 269.494 276.525C270.015 275.623 270.352 274.627 270.487 273.595L271.516 265.751C271.652 264.718 271.582 263.668 271.311 262.662C271.041 261.655 270.573 260.712 269.937 259.887C269.3 259.061 268.507 258.369 267.602 257.85C266.697 257.33 265.699 256.995 264.664 256.861C262.576 256.59 260.467 257.157 258.797 258.437C257.128 259.718 256.036 261.607 255.76 263.691L254.726 271.535C254.456 273.621 255.027 275.73 256.313 277.396C257.598 279.063 259.494 280.152 261.584 280.424Z" fill="#E2A18D"/>
<path d="M245.82 278.365C246.854 278.501 247.904 278.432 248.911 278.162C249.919 277.893 250.863 277.427 251.69 276.793C252.516 276.159 253.21 275.368 253.731 274.466C254.251 273.564 254.589 272.568 254.724 271.536L255.758 263.692C255.894 262.659 255.825 261.61 255.555 260.604C255.284 259.598 254.817 258.655 254.181 257.83C253.546 257.004 252.753 256.311 251.849 255.792C250.945 255.273 249.947 254.936 248.912 254.802C247.878 254.666 246.828 254.735 245.821 255.005C244.814 255.275 243.87 255.74 243.043 256.374C242.216 257.009 241.522 257.799 241.002 258.701C240.481 259.603 240.144 260.599 240.009 261.631L238.98 269.44C238.84 270.475 238.905 271.527 239.174 272.536C239.442 273.546 239.907 274.492 240.543 275.322C241.178 276.151 241.971 276.847 242.877 277.369C243.783 277.891 244.783 278.23 245.82 278.365Z" fill="#E2A18D"/>
<path d="M230.059 276.308C232.147 276.581 234.257 276.015 235.927 274.734C237.597 273.453 238.689 271.563 238.963 269.479L239.997 261.634C240.27 259.548 239.703 257.44 238.419 255.772C237.135 254.103 235.24 253.013 233.151 252.739C231.064 252.466 228.953 253.032 227.283 254.313C225.614 255.594 224.522 257.484 224.248 259.568L223.219 267.413C223.082 268.445 223.15 269.495 223.42 270.501C223.69 271.507 224.156 272.45 224.791 273.277C225.427 274.103 226.219 274.796 227.123 275.316C228.027 275.836 229.025 276.173 230.059 276.308Z" fill="#E2A18D"/>
<path d="M270.076 277.242C270.008 277.247 269.939 277.247 269.871 277.242C269.699 277.215 269.533 277.155 269.384 277.065C269.235 276.974 269.106 276.855 269.003 276.715C268.9 276.574 268.826 276.414 268.785 276.245C268.744 276.076 268.737 275.9 268.764 275.728L270.924 261.841C270.942 261.661 270.996 261.487 271.083 261.329C271.171 261.17 271.29 261.032 271.433 260.921C271.576 260.81 271.74 260.73 271.915 260.685C272.091 260.639 272.273 260.631 272.452 260.658C272.631 260.686 272.802 260.75 272.956 260.847C273.109 260.943 273.241 261.069 273.343 261.218C273.446 261.367 273.517 261.536 273.552 261.713C273.587 261.89 273.585 262.073 273.547 262.25L271.387 276.136C271.334 276.445 271.173 276.725 270.933 276.927C270.693 277.129 270.39 277.241 270.076 277.242Z" fill="#363E44"/>
<path d="M254.784 274.224H254.573C254.402 274.197 254.237 274.136 254.089 274.045C253.941 273.954 253.812 273.835 253.71 273.694C253.609 273.554 253.536 273.394 253.496 273.225C253.456 273.056 253.45 272.881 253.479 272.71L255.578 259.574C255.647 259.239 255.843 258.943 256.125 258.749C256.407 258.554 256.753 258.476 257.091 258.53C257.429 258.585 257.734 258.767 257.94 259.04C258.147 259.313 258.241 259.655 258.201 259.994L256.095 273.13C256.041 273.438 255.88 273.717 255.64 273.917C255.4 274.117 255.097 274.226 254.784 274.224Z" fill="#363E44"/>
<path d="M238.669 271.885H238.458C238.286 271.858 238.122 271.797 237.974 271.706C237.826 271.615 237.697 271.496 237.595 271.355C237.493 271.215 237.42 271.055 237.381 270.886C237.341 270.717 237.335 270.542 237.363 270.371L239.529 256.821C239.556 256.649 239.617 256.485 239.708 256.336C239.799 256.188 239.918 256.06 240.059 255.958C240.2 255.855 240.359 255.782 240.528 255.742C240.698 255.701 240.873 255.694 241.045 255.721C241.217 255.749 241.382 255.809 241.53 255.9C241.678 255.991 241.807 256.11 241.909 256.251C242.012 256.391 242.085 256.55 242.126 256.719C242.166 256.888 242.173 257.063 242.146 257.235L239.98 270.785C239.927 271.094 239.767 271.374 239.526 271.575C239.286 271.777 238.982 271.886 238.669 271.885Z" fill="#363E44"/>
<path d="M448.667 231.497H448.45L403.463 224.121C403.291 224.092 403.127 224.031 402.979 223.939C402.831 223.847 402.703 223.727 402.601 223.585C402.5 223.444 402.427 223.284 402.388 223.115C402.349 222.945 402.343 222.77 402.371 222.598C402.4 222.427 402.462 222.262 402.554 222.115C402.646 221.967 402.766 221.839 402.908 221.738C403.049 221.637 403.209 221.564 403.379 221.525C403.549 221.485 403.724 221.48 403.896 221.508L448.883 228.884C449.22 228.928 449.527 229.1 449.741 229.364C449.954 229.628 450.058 229.964 450.03 230.302C450.002 230.64 449.845 230.955 449.591 231.181C449.337 231.406 449.006 231.526 448.667 231.515V231.497Z" fill="#363E44"/>
<path d="M391.733 131.325L390.738 131.41C388.191 131.63 385.626 131.346 383.188 130.576C380.751 129.805 378.49 128.563 376.533 126.92C374.577 125.277 372.964 123.265 371.786 120.999C370.608 118.734 369.889 116.259 369.67 113.716L364.08 49.0148C363.899 46.9174 364.133 44.8049 364.769 42.7978C365.406 40.7908 366.432 38.9286 367.789 37.3175C369.147 35.7065 370.809 34.3782 372.68 33.4083C374.552 32.4385 376.596 31.8462 378.697 31.6653L386.489 30.9943C388.591 30.81 390.709 31.0415 392.722 31.6753C394.735 32.3092 396.603 33.3331 398.219 34.6883C399.835 36.0436 401.168 37.7037 402.141 39.5737C403.114 41.4437 403.708 43.4869 403.89 45.5864L409.479 110.287C409.699 112.831 409.415 115.392 408.643 117.825C407.871 120.259 406.627 122.516 404.982 124.47C403.336 126.423 401.321 128.034 399.052 129.209C396.783 130.385 394.304 131.103 391.757 131.323L391.733 131.325Z" fill="#E2A18D"/>
<path d="M379.411 20.0784C378.009 19.8801 364.546 18.2164 356.021 27.0818C349.681 33.6889 348.586 42.4403 348.971 57.4142C349.434 75.0551 352.177 85.5303 357.11 89.2122C364.901 95.0324 389.464 83.7764 399.149 68.7904C406.146 57.9789 406.001 43.6776 399.564 32.4216C393.127 21.1655 380.308 20.1985 379.411 20.0784Z" fill="#E2A18D"/>
<path d="M349.83 39.8508C360.659 36.1869 364.076 36.7756 365.02 38.2051C365.814 39.4064 364.539 40.7818 365.52 41.9831C367.156 43.9953 371.68 41.3404 378.285 43.1844C378.897 43.3539 379.499 43.5544 380.09 43.785C379.761 49.8515 379.428 55.916 379.091 61.9785L404.623 62.2428C406.406 60.4684 408.419 58.9412 410.609 57.7019C416.919 54.1401 420.162 55.0771 422.875 52.6325C428.037 47.9956 424.68 36.6074 423.711 33.1717C420.228 21.1889 411.746 14.2455 408.515 11.6747C402.778 7.18333 396.147 3.96446 389.066 2.23266C384.668 1.03137 371.469 -2.43433 357.35 2.8333C350.666 5.32596 347.328 8.38923 346.582 9.09799C341.077 14.2875 336.721 22.9128 339.399 26.6908C340.602 28.3846 342.244 27.796 344.813 29.694C348.236 32.1987 349.397 36.5113 349.83 39.8508Z" fill="#363E44"/>
<path d="M367.638 92.1099C367.31 92.1073 366.996 91.9844 366.753 91.7646C366.511 91.5447 366.359 91.2435 366.325 90.9185C366.292 90.5934 366.38 90.2675 366.572 90.003C366.764 89.7385 367.047 89.5541 367.367 89.4851C377.143 87.4549 391.304 79.094 398.084 68.6188C398.275 68.3241 398.575 68.117 398.918 68.0433C399.262 67.9695 399.621 68.035 399.916 68.2253C400.211 68.4157 400.418 68.7154 400.492 69.0583C400.566 69.4013 400.501 69.7596 400.31 70.0543C392.892 81.5266 378.051 89.9656 367.908 92.0798C367.819 92.0984 367.729 92.1085 367.638 92.1099Z" fill="#363E44"/>
<path d="M377.053 51.0051C375.704 54.3941 373.616 57.4409 370.941 59.9246C370.045 60.7294 365.208 51.9601 366.423 51.5937C369.882 50.6293 373.509 50.4284 377.053 51.0051Z" fill="white"/>
<path d="M353.662 64.2315C353.662 64.2315 361.483 65.7632 367.914 62.1113C369.006 61.4901 370.027 60.7509 370.958 59.9069C370.987 58.2516 370.59 56.6166 369.804 55.1588C369.018 53.7009 367.87 52.4693 366.47 51.582C365.191 51.9579 363.958 52.4757 362.794 53.1257C356.339 56.7776 353.662 64.2315 353.662 64.2315Z" fill="#363E44"/>
<path d="M360.143 76.561C359.217 76.5591 358.309 76.308 357.514 75.8342C357.364 75.7455 357.234 75.6282 357.129 75.489C357.025 75.3498 356.949 75.1915 356.906 75.023C356.863 74.8546 356.854 74.6793 356.879 74.5073C356.904 74.3352 356.962 74.1697 357.051 74.0203C357.14 73.8708 357.257 73.7403 357.397 73.6361C357.536 73.532 357.695 73.4563 357.863 73.4133C358.032 73.3704 358.208 73.361 358.38 73.3858C358.552 73.4106 358.718 73.469 358.868 73.5578C359.289 73.8233 359.785 73.9468 360.282 73.91C360.779 73.8733 361.251 73.6782 361.629 73.3535C361.89 73.0642 362.08 72.7183 362.185 72.343C362.289 71.9678 362.305 71.5736 362.231 71.1912C362.161 70.8483 362.228 70.4916 362.418 70.1975C362.608 69.9034 362.906 69.6952 363.247 69.6176C363.586 69.542 363.941 69.6031 364.235 69.7876C364.529 69.972 364.739 70.265 364.818 70.6026C364.818 70.7167 365.419 73.4256 363.446 75.2936C362.546 76.1195 361.365 76.5726 360.143 76.561Z" fill="#363E44"/>
<path d="M350.39 63.0332C350.429 64.2094 350.177 65.377 349.656 66.4328C348.874 67.9765 347.852 68.4089 347.852 69.406C347.852 70.0727 348.267 71.0458 350.414 72.2651L350.39 63.0332Z" fill="#BC8271"/>
<path d="M350.418 73.5897C350.189 73.5903 349.963 73.5324 349.762 73.4215C347.561 72.1722 346.502 70.8508 346.526 69.3852C346.588 68.5303 346.96 67.7272 347.573 67.1268C347.923 66.7343 348.224 66.3007 348.469 65.8354C348.897 64.9744 349.103 64.0209 349.071 63.0605C349.086 62.7236 349.23 62.4054 349.472 62.1704C349.714 61.9354 350.037 61.8013 350.375 61.7951C350.712 61.789 351.039 61.9114 351.29 62.1375C351.541 62.3636 351.696 62.6764 351.724 63.0124C351.764 64.4034 351.463 65.7832 350.845 67.0307C350.514 67.6751 350.111 68.2796 349.642 68.8326C349.464 69.0081 349.316 69.2109 349.203 69.4333C349.203 69.6435 349.594 70.2621 351.098 71.115C351.354 71.2582 351.556 71.4824 351.67 71.7524C351.785 72.0224 351.806 72.3228 351.731 72.6063C351.656 72.8898 351.489 73.1403 351.255 73.3183C351.022 73.4964 350.736 73.5918 350.442 73.5897H350.418Z" fill="#363E44"/>
<path d="M384.108 52.5641C385.016 48.1614 390.93 46.3054 394.551 48.2034C399.153 50.606 400.567 56.9788 397.692 62.4086C395.375 66.7933 390.972 69.2319 386.935 68.7214L383.247 67.1356C383.247 67.1356 383.175 57.0389 384.108 52.5641Z" fill="#E2A18D"/>
<path d="M388.02 70.1168C387.603 70.1177 387.187 70.0916 386.774 70.0387C386.426 69.9949 386.109 69.8146 385.893 69.5375C385.678 69.2604 385.581 68.9092 385.625 68.5611C385.669 68.213 385.85 67.8966 386.127 67.6815C386.405 67.4663 386.757 67.3701 387.105 67.4139C390.715 67.8644 394.505 65.612 396.52 61.7919C397.876 59.3344 398.206 56.4426 397.44 53.7433C397.175 52.8214 396.728 51.9614 396.127 51.2129C395.526 50.4644 394.783 49.8423 393.939 49.3826C390.931 47.8089 387.021 48.6799 384.193 51.5509C384.071 51.6748 383.926 51.7734 383.766 51.8412C383.606 51.9089 383.434 51.9445 383.26 51.9459C383.086 51.9473 382.913 51.9145 382.752 51.8493C382.59 51.7841 382.444 51.6878 382.319 51.566C382.195 51.4441 382.097 51.299 382.029 51.139C381.961 50.9791 381.925 50.8073 381.924 50.6336C381.922 50.4598 381.955 50.2875 382.021 50.1265C382.086 49.9654 382.182 49.8188 382.304 49.695C385.956 45.983 391.13 44.8898 395.172 47.0341C396.328 47.6552 397.348 48.499 398.174 49.5166C399 50.5343 399.616 51.7055 399.985 52.9624C400.959 56.3305 400.562 59.9466 398.878 63.0232C396.562 67.3899 392.321 70.1168 388.02 70.1168Z" fill="#363E44"/>
<path d="M392.977 62.5425C392.685 62.5426 392.401 62.4453 392.17 62.2662C392.032 62.1603 391.917 62.0282 391.83 61.8775C391.743 61.7268 391.687 61.5605 391.664 61.3881C391.642 61.2157 391.654 61.0405 391.7 60.8727C391.745 60.7049 391.823 60.5478 391.93 60.4102C392.117 60.1689 392.282 59.9116 392.423 59.6414C393.034 58.5424 393.185 57.2473 392.844 56.0376C392.737 55.6489 392.552 55.2859 392.301 54.9701C392.049 54.6543 391.737 54.3923 391.382 54.1996C390.993 53.9939 390.56 53.8847 390.119 53.8812C389.783 53.8586 389.468 53.7093 389.237 53.4634C389.007 53.2175 388.879 52.8934 388.879 52.5568C388.879 52.2202 389.007 51.8962 389.237 51.6503C389.468 51.4044 389.783 51.2551 390.119 51.2324C390.971 51.239 391.81 51.4447 392.568 51.8331C393.229 52.1884 393.813 52.6714 394.286 53.254C394.759 53.8365 395.111 54.5071 395.323 55.2267C395.871 57.1027 395.655 59.119 394.721 60.8367C394.51 61.2428 394.263 61.6288 393.981 61.9899C393.866 62.151 393.716 62.2843 393.542 62.3799C393.368 62.4756 393.175 62.5311 392.977 62.5425Z" fill="#363E44"/>
<rect x="346.441" y="355.693" width="108.273" height="196.986" fill="#03448A"/>
</svg>
